<svg xmlns="http://www.w3.org/2000/svg" width="36" height="37" viewBox="0 0 36 37" fill="none">
  <rect width="36" height="36" transform="translate(0 0.5)" fill="#FEE747"/>
  <path d="M6 14V26C6 28.4853 8.01472 30.5 10.5 30.5H25.5C27.9853 30.5 30 28.4853 30 26V14" stroke="#15140F" stroke-width="2.25"/>
  <path d="M18 6.5H28.8943C29.4091 6.5 29.8861 6.77645 30.151 7.22826L32.7889 11.7283C33.375 12.728 32.6714 14 31.5322 14H24.056C23.0265 14 22.0724 13.4471 21.5427 12.5435L18 6.5Z" stroke="#15140F" stroke-width="2.25"/>
  <path d="M18 6.5H7.10569C6.59091 6.5 6.11388 6.77645 5.84902 7.22826L3.21111 11.7283C2.62503 12.728 3.32864 14 4.46777 14H11.944C12.9735 14 13.9276 13.4471 14.4573 12.5435L18 6.5Z" stroke="#15140F" stroke-width="2.25"/>
</svg>