<svg xmlns="http://www.w3.org/2000/svg" width="36" height="36" viewBox="0 0 36 36" fill="none">
  <rect width="36" height="36" fill="white"/>
  <path d="M11.7295 33H24.2705C27.7336 33 30.5411 30.3209 30.5411 27.0162V19.6996C30.5411 18.6372 30.9833 17.6184 31.7705 16.8672C33.5943 15.1268 33.3572 12.2431 31.2712 10.7954L21.6881 4.14449C19.4894 2.6185 16.5106 2.6185 14.3119 4.14449L4.72876 10.7954C2.6428 12.2431 2.40571 15.1268 4.22953 16.8672C5.01671 17.6184 5.45895 18.6372 5.45895 19.6996V27.0162C5.45895 30.3209 8.26636 33 11.7295 33Z" stroke="#15140F" stroke-width="2.25" stroke-linecap="round" stroke-linejoin="round"/>
  <path d="M18.6364 15H17.3636C16.6607 15 16.0909 15.5373 16.0909 16.2C16.0909 16.9584 15.2794 17.4406 14.6133 17.078L14.5457 17.0412C13.9369 16.7098 13.1585 16.9064 12.8071 17.4804L12.1707 18.5196C11.8193 19.0936 12.0278 19.8275 12.6366 20.1588C13.303 20.5216 13.303 21.4784 12.6366 21.8412C12.0279 22.1725 11.8193 22.9064 12.1707 23.4804L12.8071 24.5196C13.1586 25.0936 13.937 25.2902 14.5457 24.9588L14.6133 24.922C15.2794 24.5594 16.0909 25.0416 16.0909 25.8C16.0909 26.4627 16.6607 27 17.3636 27H18.6364C19.3393 27 19.9091 26.4627 19.9091 25.8C19.9091 25.0416 20.7205 24.5594 21.3867 24.922L21.4543 24.9588C22.0631 25.2902 22.8414 25.0936 23.1929 24.5196L23.8293 23.4804C24.1807 22.9064 23.9721 22.1725 23.3634 21.8412C22.697 21.4784 22.697 20.5216 23.3634 20.1588C23.9722 19.8275 24.1807 19.0936 23.8293 18.5196L23.1929 17.4804C22.8415 16.9064 22.0631 16.7098 21.4543 17.0412L21.3867 17.078C20.7206 17.4406 19.9091 16.9584 19.9091 16.2C19.9091 15.5373 19.3393 15 18.6364 15Z" stroke="#15140F" stroke-width="2.25" stroke-linecap="round" stroke-linejoin="round"/>
  <path d="M19.125 21C19.125 21.6213 18.6213 22.125 18 22.125C17.3787 22.125 16.875 21.6213 16.875 21C16.875 20.3787 17.3787 19.875 18 19.875C18.6213 19.875 19.125 20.3787 19.125 21Z" fill="#15140F"/>
</svg>