<svg xmlns="http://www.w3.org/2000/svg" width="36" height="37" viewBox="0 0 36 37" fill="none">
  <rect width="36" height="36" transform="translate(0 0.5)" fill="#FEE747"/>
  <path d="M11.7295 33.5H24.2705C27.7336 33.5 30.5411 30.8209 30.5411 27.5162V20.1996C30.5411 19.1372 30.9833 18.1184 31.7705 17.3672C33.5943 15.6268 33.3572 12.7431 31.2712 11.2954L21.6881 4.64449C19.4894 3.1185 16.5106 3.1185 14.3119 4.64449L4.72876 11.2954C2.6428 12.7431 2.40571 15.6268 4.22953 17.3672C5.01671 18.1184 5.45895 19.1372 5.45895 20.1996V27.5162C5.45895 30.8209 8.26636 33.5 11.7295 33.5Z" stroke="#15140F" stroke-width="2.25" stroke-linecap="round" stroke-linejoin="round"/>
  <path d="M18.6364 15.5H17.3636C16.6607 15.5 16.0909 16.0373 16.0909 16.7C16.0909 17.4584 15.2794 17.9406 14.6133 17.578L14.5457 17.5412C13.9369 17.2098 13.1585 17.4064 12.8071 17.9804L12.1707 19.0196C11.8193 19.5936 12.0278 20.3275 12.6366 20.6588C13.303 21.0216 13.303 21.9784 12.6366 22.3412C12.0279 22.6725 11.8193 23.4064 12.1707 23.9804L12.8071 25.0196C13.1586 25.5936 13.937 25.7902 14.5457 25.4588L14.6133 25.422C15.2794 25.0594 16.0909 25.5416 16.0909 26.3C16.0909 26.9627 16.6607 27.5 17.3636 27.5H18.6364C19.3393 27.5 19.9091 26.9627 19.9091 26.3C19.9091 25.5416 20.7205 25.0594 21.3867 25.422L21.4543 25.4588C22.0631 25.7902 22.8414 25.5936 23.1929 25.0196L23.8293 23.9804C24.1807 23.4064 23.9721 22.6725 23.3634 22.3412C22.697 21.9784 22.697 21.0216 23.3634 20.6588C23.9722 20.3275 24.1807 19.5936 23.8293 19.0196L23.1929 17.9804C22.8415 17.4064 22.0631 17.2098 21.4543 17.5412L21.3867 17.578C20.7206 17.9406 19.9091 17.4584 19.9091 16.7C19.9091 16.0373 19.3393 15.5 18.6364 15.5Z" stroke="#15140F" stroke-width="2.25" stroke-linecap="round" stroke-linejoin="round"/>
  <path d="M19.125 21.5C19.125 22.1213 18.6213 22.625 18 22.625C17.3787 22.625 16.875 22.1213 16.875 21.5C16.875 20.8787 17.3787 20.375 18 20.375C18.6213 20.375 19.125 20.8787 19.125 21.5Z" fill="#15140F"/>
</svg>