<svg xmlns="http://www.w3.org/2000/svg" width="175" height="40" viewBox="0 0 175 40" fill="none">
  <g clip-path="url(#clip0_3257_6605)">
    <path fill-rule="evenodd" clip-rule="evenodd" d="M21.4485 3.46904C19.8108 2.7412 17.9415 2.74121 16.3039 3.46904L6.56424 7.79777C4.25514 8.82403 2.79179 11.0916 2.9327 13.5109C3.27599 19.4044 4.30246 23.4805 6.25381 26.808C8.20761 30.1398 11.1732 32.8669 15.6729 35.9133C17.605 37.2213 20.1523 37.223 22.079 35.9155C26.5867 32.8565 29.5297 30.1036 31.4652 26.767C33.4001 23.4315 34.4109 19.3692 34.7847 13.544C34.9411 11.1059 33.474 8.81372 31.1495 7.7806L21.4485 3.46904ZM15.1167 0.79782C17.5101 -0.265939 20.2422 -0.265941 22.6357 0.797819L32.3367 5.10938C35.6858 6.59789 37.9429 9.97321 37.7018 13.7312C37.3131 19.7892 36.2441 24.3545 33.9937 28.2338C31.744 32.112 28.3964 35.1612 23.7204 38.3343C20.7998 40.3163 16.9529 40.3099 14.0341 38.3339C9.37823 35.1818 6.00428 32.1612 3.73223 28.2867C1.45774 24.4081 0.372049 19.8196 0.014487 13.6809C-0.20313 9.94484 2.05174 6.60445 5.37703 5.12655L15.1167 0.79782ZM25.6847 15.2168C26.2922 15.7483 26.3538 16.6717 25.8222 17.2792L20.2294 23.671C19.0276 25.0444 16.9575 25.2284 15.5324 24.0883L12.1166 21.3556C11.4862 20.8513 11.384 19.9316 11.8883 19.3012C12.3926 18.6709 13.3123 18.5687 13.9426 19.073L17.3585 21.8057C17.5621 21.9685 17.8578 21.9423 18.0295 21.746L23.6223 15.3543C24.1538 14.7468 25.0772 14.6852 25.6847 15.2168ZM52.6069 31.4157C53.9282 31.9887 55.5009 32.2752 57.3249 32.2752C59.1256 32.2752 60.6865 32.0062 62.0078 31.4684C63.3291 30.9188 64.3522 30.1237 65.0771 29.0831C65.8021 28.0424 66.1646 26.7854 66.1646 25.3122C66.1646 23.8506 65.8605 22.6404 65.2525 21.6816C64.6445 20.7228 63.7793 19.9219 62.6568 19.2788C61.546 18.6357 60.2188 18.0569 58.6754 17.5424C57.4594 17.1332 56.372 16.7122 55.4132 16.2796C54.4661 15.847 53.7177 15.3266 53.1682 14.7186C52.6303 14.1106 52.3614 13.3506 52.3614 12.4386C52.3614 11.2108 52.7823 10.3222 53.6242 9.77264C54.4777 9.22308 55.6879 8.94831 57.2548 8.94831C58.8683 8.94831 60.0844 9.28739 60.9029 9.96557C61.733 10.6437 62.1481 11.7428 62.1481 13.2629V13.7891V14.3328H65.9716V13.7189V13.105C65.9716 11.4447 65.6033 10.0708 64.8667 8.98338C64.1417 7.88427 63.1186 7.06579 61.7973 6.52793C60.4878 5.97837 58.9502 5.70359 57.1846 5.70359C55.5242 5.70359 54.051 5.96668 52.7648 6.49285C51.4786 7.00732 50.473 7.76735 49.7481 8.77292C49.0231 9.77848 48.6606 11.0004 48.6606 12.4386C48.6606 13.9001 48.988 15.1396 49.6428 16.1568C50.3093 17.1624 51.2038 18.0043 52.3263 18.6824C53.4488 19.3489 54.7058 19.8985 56.0972 20.3311C57.3366 20.717 58.4299 21.132 59.377 21.5764C60.3358 22.0207 61.0841 22.5527 61.622 23.1724C62.1715 23.7804 62.4463 24.5346 62.4463 25.4349C62.4463 26.6978 62.0078 27.6156 61.1309 28.1886C60.2539 28.7498 58.9794 29.0304 57.3074 29.0304C55.6704 29.0304 54.4251 28.6621 53.5716 27.9255C52.718 27.1772 52.2912 26.0079 52.2912 24.4177V23.874V23.3478H48.4853V23.9091V24.4878C48.4853 26.2067 48.8419 27.6507 49.5551 28.82C50.2801 29.9775 51.2973 30.8428 52.6069 31.4157ZM74.0091 9.19385H84.8482V6.03683H70.1856V31.9068H84.8482V28.7498H74.0091V20.5065H82.9014V17.3495H74.0091V9.19385ZM107.781 22.7515C107.781 23.8272 107.582 24.9205 107.185 26.0313C106.787 27.1421 106.185 28.171 105.378 29.1181C104.571 30.0652 103.554 30.8311 102.326 31.4157C101.099 31.9887 99.6546 32.2752 97.9942 32.2752C95.7376 32.2752 93.8141 31.7081 92.2239 30.5739C90.6454 29.428 89.4411 27.8553 88.6109 25.8559C87.7807 23.8564 87.3656 21.5647 87.3656 18.9806C87.3656 16.3848 87.7807 14.0931 88.6109 12.1053C89.4411 10.1059 90.6454 8.53906 92.2239 7.40487C93.8141 6.27069 95.7376 5.70359 97.9942 5.70359C99.8768 5.70359 101.479 6.07191 102.8 6.80855C104.133 7.54519 105.191 8.49229 105.974 9.64986C106.77 10.8074 107.296 12.0118 107.553 13.2629C107.705 13.9411 107.781 14.5842 107.781 15.1922H103.958C103.958 14.8648 103.928 14.5082 103.87 14.1223C103.741 13.1869 103.425 12.3275 102.923 11.5441C102.432 10.7607 101.771 10.1351 100.941 9.6674C100.122 9.1997 99.1401 8.96584 97.9942 8.96584C96.6613 8.96584 95.4862 9.34001 94.4689 10.0883C93.4517 10.825 92.6566 11.9358 92.0836 13.4207C91.5224 14.9057 91.2417 16.759 91.2417 18.9806C91.2417 21.1905 91.5224 23.0438 92.0836 24.5405C92.6566 26.0254 93.4517 27.1479 94.4689 27.9079C95.4862 28.6563 96.6613 29.0304 97.9942 29.0304C98.9647 29.0304 99.8183 28.855 100.555 28.5043C101.292 28.1535 101.911 27.6799 102.414 27.0836C102.917 26.4873 103.297 25.815 103.554 25.0666C103.823 24.3183 103.958 23.5466 103.958 22.7515H107.781ZM127.679 29.8548C129.305 28.2295 130.117 25.7565 130.117 22.4358V6.03683H126.311V22.4182C126.311 24.7568 125.861 26.4464 124.961 27.487C124.072 28.516 122.733 29.0304 120.944 29.0304C119.167 29.0304 117.834 28.516 116.945 27.487C116.057 26.4464 115.612 24.7568 115.612 22.4182V21.1028V19.5418V6.03683H111.806V19.1209V20.8748V22.4358C111.806 25.7565 112.613 28.2295 114.227 29.8548C115.852 31.4684 118.091 32.2752 120.944 32.2752C123.809 32.2752 126.054 31.4684 127.679 29.8548ZM134.861 31.9068V6.03683H144.332C146.822 6.03683 148.705 6.61562 149.979 7.77319C151.254 8.93077 151.891 10.6671 151.891 12.9823C151.891 14.3386 151.628 15.4962 151.102 16.455C150.587 17.4138 149.962 18.1563 149.225 18.6824C148.5 19.1969 147.816 19.4892 147.173 19.5594C147.828 19.6062 148.465 19.7815 149.085 20.0856C149.704 20.3896 150.219 20.8573 150.628 21.4887C151.037 22.1201 151.242 22.9736 151.242 24.0494V26.8205V29.6092C151.242 30.1354 151.283 30.6148 151.365 31.0474C151.458 31.4684 151.569 31.7548 151.698 31.9068H147.857C147.752 31.7314 147.658 31.4391 147.576 31.0299C147.495 30.6206 147.454 30.1471 147.454 29.6092V27.0661V24.5054C147.454 23.3946 147.12 22.5644 146.454 22.0148C145.799 21.4536 144.84 21.173 143.578 21.173H138.579V31.9068H134.861ZM143.613 18.016H138.579V9.19385H143.437C144.899 9.19385 146.021 9.52125 146.805 10.176C147.588 10.8308 147.98 11.8715 147.98 13.298C147.98 14.2451 147.781 15.0753 147.383 15.7885C146.998 16.4901 146.477 17.0396 145.823 17.4372C145.168 17.823 144.431 18.016 143.613 18.016ZM162.007 5.98422L155.096 31.9068H159.025L160.697 25.3297H169.254L170.916 31.9068H174.828L167.987 5.98422H162.007ZM168.456 22.1727L164.988 8.45627L161.5 22.1727H168.456Z" fill="#15140F"/>
  </g>
  <defs>
    <clipPath id="clip0_3257_6605">
      <rect width="174.828" height="40" fill="white"/>
    </clipPath>
  </defs>
</svg>