<svg xmlns="http://www.w3.org/2000/svg" width="167" height="38" viewBox="0 0 167 38" fill="none">
  <g clip-path="url(#clip0_3415_12000)">
    <path fill-rule="evenodd" clip-rule="evenodd" d="M20.376 3.29559C18.8203 2.60414 17.0444 2.60415 15.4887 3.29559L6.23603 7.40788C4.04238 8.38283 2.6522 10.537 2.78607 12.8354C3.11219 18.4342 4.08733 22.3064 5.94112 25.4676C7.79723 28.6328 10.6145 31.2236 14.8892 34.1176C16.7247 35.3602 19.1447 35.3618 20.975 34.1197C25.2574 31.2137 28.0532 28.5984 29.8919 25.4287C31.7301 22.2599 32.6904 18.4007 33.0454 12.8668C33.194 10.5506 31.8003 8.37304 29.592 7.39157L20.376 3.29559ZM14.3608 0.757929C16.6346 -0.252642 19.2301 -0.252644 21.5039 0.757928L30.7198 4.85391C33.9015 6.268 36.0458 9.47455 35.8167 13.0446C35.4475 18.7998 34.4319 23.1368 32.294 26.8221C30.1568 30.5064 26.9766 33.4031 22.5344 36.4176C19.7598 38.3005 16.1053 38.2944 13.3324 36.4172C8.90932 33.4227 5.70406 30.5531 3.54562 26.8724C1.38485 23.1877 0.353446 18.8286 0.0137626 12.9969C-0.192973 9.44759 1.94915 6.27423 5.10818 4.87022L14.3608 0.757929ZM24.4005 14.4559C24.9776 14.9609 25.0361 15.8381 24.5311 16.4152L19.2179 22.4874C18.0762 23.7922 16.1096 23.9669 14.7558 22.8839L11.5107 20.2878C10.9119 19.8088 10.8148 18.935 11.2939 18.3362C11.7729 17.7374 12.6467 17.6403 13.2455 18.1193L16.4906 20.7154C16.684 20.8701 16.9649 20.8451 17.128 20.6587L22.4412 14.5866C22.9462 14.0094 23.8234 13.951 24.4005 14.4559ZM49.9766 29.845C51.2318 30.3892 52.7258 30.6614 54.4587 30.6614C56.1693 30.6614 57.6522 30.4059 58.9074 29.8949C60.1626 29.3729 61.1346 28.6175 61.8233 27.6289C62.512 26.6403 62.8563 25.4462 62.8563 24.0466C62.8563 22.6581 62.5675 21.5084 61.9899 20.5975C61.4123 19.6867 60.5903 18.9258 59.5239 18.3148C58.4687 17.7039 57.2079 17.154 55.7416 16.6653C54.5864 16.2765 53.5534 15.8766 52.6425 15.4656C51.7427 15.0546 51.0318 14.5603 50.5098 13.9827C49.9988 13.4051 49.7433 12.6831 49.7433 11.8166C49.7433 10.6503 50.1432 9.80608 50.943 9.28401C51.7539 8.76193 52.9035 8.50089 54.392 8.50089C55.9249 8.50089 57.0802 8.82302 57.8577 9.46729C58.6464 10.1116 59.0407 11.1557 59.0407 12.5997V13.0996V13.6161H62.673V13.033V12.4498C62.673 10.8725 62.3231 9.56726 61.6233 8.53421C60.9346 7.49006 59.9627 6.7125 58.7075 6.20153C57.4634 5.67945 56.0027 5.41841 54.3254 5.41841C52.748 5.41841 51.3484 5.66834 50.1265 6.1682C48.9046 6.65696 47.9494 7.37898 47.2607 8.33427C46.572 9.28956 46.2276 10.4503 46.2276 11.8166C46.2276 13.2051 46.5386 14.3826 47.1607 15.349C47.7938 16.3043 48.6436 17.1041 49.71 17.7483C50.7763 18.3815 51.9705 18.9036 53.2923 19.3145C54.4698 19.6811 55.5084 20.0754 56.4081 20.4976C57.319 20.9197 58.0299 21.4251 58.5409 22.0138C59.0629 22.5914 59.324 23.3079 59.324 24.1632C59.324 25.3629 58.9074 26.2348 58.0743 26.7791C57.2412 27.3123 56.0304 27.5789 54.442 27.5789C52.8869 27.5789 51.7039 27.229 50.893 26.5292C50.0821 25.8183 49.6767 24.7075 49.6767 23.1968V22.6803V22.1804H46.061V22.7136V23.2635C46.061 24.8963 46.3998 26.2682 47.0774 27.379C47.7661 28.4787 48.7325 29.3007 49.9766 29.845ZM70.3087 8.73416H80.6058V5.73499H66.6764V30.3115H80.6058V27.3123H70.3087V19.4812H78.7563V16.482H70.3087V8.73416ZM102.392 21.6139C102.392 22.6358 102.203 23.6744 101.825 24.7297C101.448 25.785 100.876 26.7625 100.109 27.6622C99.3428 28.562 98.3764 29.2896 97.2101 29.845C96.0437 30.3892 94.6719 30.6614 93.0945 30.6614C90.9507 30.6614 89.1234 30.1227 87.6127 29.0452C86.1131 27.9566 84.969 26.4626 84.1803 24.5631C83.3917 22.6636 82.9973 20.4864 82.9973 18.0316C82.9973 15.5656 83.3917 13.3884 84.1803 11.5001C84.969 9.60058 86.1131 8.11211 87.6127 7.03463C89.1234 5.95715 90.9507 5.41841 93.0945 5.41841C94.8829 5.41841 96.4047 5.76832 97.6599 6.46812C98.9262 7.16793 99.9315 8.06768 100.676 9.16737C101.431 10.2671 101.931 11.4112 102.175 12.5997C102.32 13.244 102.392 13.855 102.392 14.4326H98.7596C98.7596 14.1215 98.7318 13.7828 98.6763 13.4162C98.5541 12.5275 98.2542 11.7111 97.7766 10.9669C97.31 10.2226 96.6824 9.62835 95.8938 9.18403C95.1162 8.73971 94.1831 8.51755 93.0945 8.51755C91.8282 8.51755 90.7119 8.87301 89.7455 9.58392C88.7791 10.2837 88.0237 11.339 87.4794 12.7497C86.9462 14.1604 86.6796 15.921 86.6796 18.0316C86.6796 20.131 86.9462 21.8916 87.4794 23.3134C88.0237 24.7242 88.7791 25.7905 89.7455 26.5125C90.7119 27.2235 91.8282 27.5789 93.0945 27.5789C94.0165 27.5789 94.8274 27.4123 95.5272 27.0791C96.227 26.7458 96.8157 26.2959 97.2934 25.7294C97.771 25.1629 98.132 24.5242 98.3764 23.8133C98.6319 23.1024 98.7596 22.3693 98.7596 21.6139H102.392ZM121.295 28.362C122.839 26.818 123.611 24.4687 123.611 21.314V5.73499H119.996V21.2973C119.996 23.5189 119.568 25.124 118.713 26.1127C117.868 27.0902 116.597 27.5789 114.897 27.5789C113.209 27.5789 111.942 27.0902 111.098 26.1127C110.254 25.124 109.832 23.5189 109.832 21.2973V20.0477V18.5648V5.73499H106.216V18.1649V19.8311V21.314C106.216 24.4687 106.983 26.818 108.516 28.362C110.06 29.8949 112.187 30.6614 114.897 30.6614C117.619 30.6614 119.751 29.8949 121.295 28.362ZM128.118 30.3115V5.73499H137.115C139.481 5.73499 141.27 6.28484 142.48 7.38453C143.691 8.48423 144.296 10.1338 144.296 12.3332C144.296 13.6217 144.047 14.7214 143.547 15.6322C143.058 16.5431 142.464 17.2485 141.764 17.7483C141.075 18.2371 140.425 18.5148 139.814 18.5814C140.436 18.6259 141.042 18.7925 141.631 19.0813C142.219 19.3701 142.708 19.8144 143.097 20.4142C143.486 21.0141 143.68 21.825 143.68 22.8469V25.4795V28.1288C143.68 28.6286 143.719 29.0841 143.797 29.4951C143.885 29.8949 143.991 30.1671 144.113 30.3115H140.464C140.364 30.1449 140.275 29.8672 140.198 29.4784C140.12 29.0896 140.081 28.6397 140.081 28.1288V25.7128V23.2801C140.081 22.2249 139.764 21.4362 139.131 20.9141C138.509 20.3809 137.598 20.1143 136.399 20.1143H131.65V30.3115H128.118ZM136.432 17.1152H131.65V8.73416H136.265C137.654 8.73416 138.72 9.04518 139.464 9.66723C140.209 10.2893 140.581 11.2779 140.581 12.6331C140.581 13.5328 140.392 14.3215 140.014 14.9991C139.648 15.6656 139.153 16.1876 138.531 16.5653C137.909 16.9319 137.21 17.1152 136.432 17.1152ZM153.906 5.68501L147.341 30.3115H151.074L152.663 24.0632H160.791L162.371 30.3115H166.086L159.588 5.68501H153.906ZM160.033 21.0641L156.739 8.03342L153.425 21.0641H160.033Z" fill="#15140F"/>
  </g>
  <defs>
    <clipPath id="clip0_3415_12000">
      <rect width="166.086" height="38" fill="white"/>
    </clipPath>
  </defs>
</svg>