<svg xmlns="http://www.w3.org/2000/svg" width="36" height="37" viewBox="0 0 36 37" fill="none">
  <rect width="36" height="36" transform="translate(0 0.5)" fill="#FEE747"/>
  <path d="M31.5 20V23C31.5 25.4853 29.4853 27.5 27 27.5C24.5147 27.5 22.5 25.4853 22.5 23V20C22.5 17.5147 24.5147 15.5 27 15.5C29.4853 15.5 31.5 17.5147 31.5 20ZM31.5 20V17C31.5 9.54416 25.4558 3.5 18 3.5C10.5442 3.5 4.5 9.54416 4.5 17V20M4.5 20V23C4.5 25.4853 6.51472 27.5 9 27.5C11.4853 27.5 13.5 25.4853 13.5 23V20C13.5 17.5147 11.4853 15.5 9 15.5C6.51472 15.5 4.5 17.5147 4.5 20ZM31.5 21.5V24.5C31.5 29.4706 27.4706 33.5 22.5 33.5H18" stroke="#15140F" stroke-width="2.25" stroke-linecap="round" stroke-linejoin="round"/>
</svg>