<svg xmlns="http://www.w3.org/2000/svg" width="24" height="25" viewBox="0 0 24 25" fill="none">
  <path d="M8.63118 10.9344C8.05656 9.7874 6.87023 9 5.5 9C3.567 9 2 10.567 2 12.5C2 14.433 3.567 16 5.5 16C6.87023 16 8.05656 15.2126 8.63118 14.0656M8.63118 10.9344C8.86718 11.4055 9 11.9372 9 12.5C9 13.0628 8.86718 13.5945 8.63118 14.0656M8.63118 10.9344L15.3688 7.56559M8.63118 14.0656L15.3688 17.4344M15.3688 7.56559C15.9434 8.7126 17.1298 9.5 18.5 9.5C20.433 9.5 22 7.933 22 6C22 4.067 20.433 2.5 18.5 2.5C16.567 2.5 15 4.067 15 6C15 6.56276 15.1328 7.09451 15.3688 7.56559ZM15.3688 17.4344C15.1328 17.9055 15 18.4372 15 19C15 20.933 16.567 22.5 18.5 22.5C20.433 22.5 22 20.933 22 19C22 17.067 20.433 15.5 18.5 15.5C17.1298 15.5 15.9434 16.2874 15.3688 17.4344Z" stroke="#15140F" stroke-width="1.5" stroke-linecap="round"/>
</svg>