<svg xmlns="http://www.w3.org/2000/svg" width="20" height="20" viewBox="0 0 20 20" fill="none">
  <g clip-path="url(#clip0_234_1766)">
    <path d="M8.36076 2.72626C9.03133 1.31358 10.9688 1.31358 11.6394 2.72626L12.7983 5.16773C13.0646 5.72871 13.5793 6.11753 14.1748 6.20748L16.7662 6.59899C18.2656 6.82553 18.8644 8.74137 17.7794 9.84098L15.9042 11.7414C15.4733 12.1781 15.2767 12.8072 15.3784 13.4238L15.8211 16.1072C16.0772 17.6599 14.5098 18.8439 13.1686 18.1109L10.8508 16.8439C10.3182 16.5528 9.68196 16.5528 9.14939 16.8439L6.83155 18.1109C5.49041 18.8439 3.92293 17.6599 4.17907 16.1072L4.62174 13.4238C4.72345 12.8072 4.52684 12.1781 4.09598 11.7414L2.22081 9.84099C1.1358 8.74137 1.73452 6.82553 3.23397 6.59899L5.82539 6.20748C6.42082 6.11753 6.93555 5.72871 7.20184 5.16773L8.36076 2.72626Z" stroke="#15140F" stroke-width="1.5" stroke-linejoin="round"/>
  </g>
  <defs>
    <clipPath id="clip0_234_1766">
      <rect width="20" height="20" fill="white"/>
    </clipPath>
  </defs>
</svg>