<svg xmlns="http://www.w3.org/2000/svg" width="36" height="36" viewBox="0 0 36 36" fill="none">
  <path d="M3 19.875H1.875V22.125H3V19.875ZM33 22.125H34.125V19.875H33V22.125ZM13.5 31.875C12.8787 31.875 12.375 32.3787 12.375 33C12.375 33.6213 12.8787 34.125 13.5 34.125V31.875ZM22.5 34.125C23.1213 34.125 23.625 33.6213 23.625 33C23.625 32.3787 23.1213 31.875 22.5 31.875V34.125ZM19.125 27C19.125 26.3787 18.6213 25.875 18 25.875C17.3787 25.875 16.875 26.3787 16.875 27H19.125ZM7.5 4.125H28.5V1.875H7.5V4.125ZM31.875 7.5V22.5H34.125V7.5H31.875ZM28.5 25.875H7.5V28.125H28.5V25.875ZM4.125 22.5V7.5H1.875V22.5H4.125ZM7.5 25.875C5.63604 25.875 4.125 24.364 4.125 22.5H1.875C1.875 25.6066 4.3934 28.125 7.5 28.125V25.875ZM31.875 22.5C31.875 24.364 30.364 25.875 28.5 25.875V28.125C31.6066 28.125 34.125 25.6066 34.125 22.5H31.875ZM28.5 4.125C30.364 4.125 31.875 5.63604 31.875 7.5H34.125C34.125 4.3934 31.6066 1.875 28.5 1.875V4.125ZM7.5 1.875C4.3934 1.875 1.875 4.3934 1.875 7.5H4.125C4.125 5.63604 5.63604 4.125 7.5 4.125V1.875ZM3 22.125H33V19.875H3V22.125ZM13.5 34.125H18V31.875H13.5V34.125ZM18 34.125H22.5V31.875H18V34.125ZM19.125 33V27H16.875V33H19.125Z" fill="#15140F"/>
</svg>