<svg xmlns="http://www.w3.org/2000/svg" width="36" height="36" viewBox="0 0 36 36" fill="none">
  <ellipse cx="15" cy="26.25" rx="10.5" ry="5.25" stroke="#15140F" stroke-width="2.25" stroke-linejoin="round"/>
  <circle cx="15" cy="10.5" r="6" stroke="#15140F" stroke-width="2.25" stroke-linejoin="round"/>
  <path fill-rule="evenodd" clip-rule="evenodd" d="M22.567 15.3742C22.0839 16.1226 21.4929 16.7946 20.8159 17.3685C21.3476 17.5351 21.9133 17.6249 22.4999 17.6249C25.6065 17.6249 28.1249 15.1065 28.1249 11.9999C28.1249 9.06621 25.8791 6.65708 23.0129 6.39795C23.4122 7.1764 23.7014 8.02063 23.8599 8.9101C25.0466 9.43318 25.8749 10.6198 25.8749 11.9999C25.8749 13.8414 24.4 15.3385 22.567 15.3742Z" fill="#15140F"/>
  <path fill-rule="evenodd" clip-rule="evenodd" d="M28.4997 26.3343C28.4846 27.2556 28.2224 28.1407 27.7516 28.9661C28.3042 28.8141 28.8219 28.6379 29.2971 28.4399C30.1928 28.0667 30.9911 27.5937 31.5827 27.0109C32.1782 26.4242 32.6254 25.6595 32.6254 24.7498C32.6254 23.8401 32.1782 23.0754 31.5827 22.4887C30.9911 21.9059 30.1928 21.4329 29.2971 21.0597C27.7631 20.4205 25.7863 20.0089 23.6245 19.9023C25.1278 20.666 26.3555 21.6253 27.203 22.7163C27.6495 22.841 28.0611 22.9822 28.4317 23.1366C29.1647 23.442 29.6844 23.7771 30.0037 24.0916C30.319 24.4022 30.3754 24.6239 30.3754 24.7498C30.3754 24.8757 30.319 25.0974 30.0037 25.408C29.6944 25.7127 29.1969 26.0367 28.4997 26.3343Z" fill="#15140F"/>
</svg>