<svg xmlns="http://www.w3.org/2000/svg" width="36" height="37" viewBox="0 0 36 37" fill="none">
  <rect width="36" height="36" transform="translate(0 0.5)" fill="#FEE747"/>
  <ellipse cx="15" cy="26.75" rx="10.5" ry="5.25" stroke="#15140F" stroke-width="2.25" stroke-linejoin="round"/>
  <circle cx="15" cy="11" r="6" stroke="#15140F" stroke-width="2.25" stroke-linejoin="round"/>
  <path fill-rule="evenodd" clip-rule="evenodd" d="M22.5668 15.8742C22.0838 16.6226 21.4928 17.2946 20.8158 17.8685C21.3475 18.0351 21.9132 18.1249 22.4998 18.1249C25.6064 18.1249 28.1248 15.6065 28.1248 12.4999C28.1248 9.56621 25.879 7.15708 23.0128 6.89795C23.4121 7.6764 23.7013 8.52063 23.8598 9.4101C25.0464 9.93318 25.8748 11.1198 25.8748 12.4999C25.8748 14.3414 24.3999 15.8385 22.5668 15.8742Z" fill="#15140F"/>
  <path fill-rule="evenodd" clip-rule="evenodd" d="M28.4995 26.8343C28.4844 27.7556 28.2221 28.6407 27.7514 29.4661C28.3039 29.3141 28.8216 29.1379 29.2968 28.9399C30.1925 28.5667 30.9909 28.0937 31.5824 27.5109C32.178 26.9242 32.6252 26.1595 32.6252 25.2498C32.6252 24.3401 32.178 23.5754 31.5824 22.9887C30.9909 22.4059 30.1925 21.9329 29.2968 21.5597C27.7629 20.9205 25.786 20.5089 23.6243 20.4023C25.1276 21.166 26.3553 22.1253 27.2027 23.2163C27.6493 23.341 28.0608 23.4822 28.4315 23.6366C29.1644 23.942 29.6841 24.2771 30.0034 24.5916C30.3187 24.9022 30.3752 25.1239 30.3752 25.2498C30.3752 25.3757 30.3187 25.5974 30.0034 25.908C29.6941 26.2127 29.1967 26.5367 28.4995 26.8343Z" fill="#15140F"/>
</svg>